<?xml version="1.0"?>
<svg xmlns="http://www.w3.org/2000/svg" id="_x31_px" enable-background="new 0 0 24 24" height="512px" viewBox="0 0 24 24" width="512px"><g><path d="m19.5 24h-15c-1.379 0-2.5-1.122-2.5-2.5v-19c0-1.378 1.121-2.5 2.5-2.5h15c1.379 0 2.5 1.122 2.5 2.5v19c0 1.378-1.121 2.5-2.5 2.5zm-15-23c-.827 0-1.5.673-1.5 1.5v19c0 .827.673 1.5 1.5 1.5h15c.827 0 1.5-.673 1.5-1.5v-19c0-.827-.673-1.5-1.5-1.5z" data-original="#000000" class="active-path" fill="#000000"/><path d="m12 14.5c-2.229 0-6-.421-6-2 0-.276.224-.5.5-.5.271 0 .492.216.5.486.158.357 1.994 1.014 5 1.014 3.024 0 4.864-.665 5.003-1.021 0-.276.223-.49.499-.49.275 0 .498.234.498.51 0 1.58-3.771 2.001-6 2.001zm-5-2h.01z" data-original="#000000" class="active-path" fill="#000000"/><path d="m12 10c-2.229 0-6-.421-6-2s3.771-2 6-2 6 .421 6 2-3.771 2-6 2zm0-3c-3.021 0-4.863.665-5.003 1.021.14.314 1.982.979 5.003.979 2.963 0 4.791-.639 4.993-1-.202-.361-2.03-1-4.993-1zm5.003 1.021h.01z" data-original="#000000" class="active-path" fill="#000000"/><path d="m12 19c-2.229 0-6-.421-6-2v-9c0-.276.224-.5.5-.5s.5.224.5.5v9c.136.335 1.976 1 5 1s4.864-.665 5.003-1.021l-.003-8.979c0-.276.224-.5.5-.5s.5.224.5.5v9c0 1.579-3.771 2-6 2z" data-original="#000000" class="active-path" fill="#000000"/><circle cx="8.5" cy="11.5" r=".5" data-original="#000000" class="active-path" fill="#000000"/><circle cx="8.5" cy="16" r=".5" data-original="#000000" class="active-path" fill="#000000"/></g> </svg>
