<?xml version="1.0"?>
<svg xmlns="http://www.w3.org/2000/svg" id="_x31_px" enable-background="new 0 0 24 24" height="512px" viewBox="0 0 24 24" width="512px" class=""><g><path d="m19.5 24h-15c-1.379 0-2.5-1.122-2.5-2.5v-19c0-1.378 1.121-2.5 2.5-2.5h15c1.379 0 2.5 1.122 2.5 2.5v19c0 1.378-1.121 2.5-2.5 2.5zm-15-23c-.827 0-1.5.673-1.5 1.5v19c0 .827.673 1.5 1.5 1.5h15c.827 0 1.5-.673 1.5-1.5v-19c0-.827-.673-1.5-1.5-1.5z" data-original="#000000" class="active-path" fill="#000000"/><path d="m15.5 17h-1c-.276 0-.5-.224-.5-.5s.224-.5.5-.5h1c.275 0 .5-.224.5-.5v-2c0-.384.145-.734.383-1-.238-.266-.383-.616-.383-1v-2c0-.276-.225-.5-.5-.5h-1c-.276 0-.5-.224-.5-.5s.224-.5.5-.5h1c.827 0 1.5.673 1.5 1.5v2c0 .276.225.5.5.5.276 0 .5.224.5.5s-.224.5-.5.5c-.275 0-.5.224-.5.5v2c0 .827-.673 1.5-1.5 1.5z" data-original="#000000" class="active-path" fill="#000000"/><path d="m9.5 17h-1c-.827 0-1.5-.673-1.5-1.5v-2c0-.276-.225-.5-.5-.5-.276 0-.5-.224-.5-.5s.224-.5.5-.5c.275 0 .5-.224.5-.5v-2c0-.827.673-1.5 1.5-1.5h1c.276 0 .5.224.5.5s-.224.5-.5.5h-1c-.275 0-.5.224-.5.5v2c0 .384-.145.734-.383 1 .238.266.383.616.383 1v2c0 .276.225.5.5.5h1c.276 0 .5.224.5.5s-.224.5-.5.5z" data-original="#000000" class="active-path" fill="#000000"/><path d="m13.5 14h-3c-.276 0-.5-.224-.5-.5s.224-.5.5-.5h3c.276 0 .5.224.5.5s-.224.5-.5.5z" data-original="#000000" class="active-path" fill="#000000"/></g> </svg>
