<?xml version="1.0"?>
<svg xmlns="http://www.w3.org/2000/svg" id="_x31_px" enable-background="new 0 0 24 24" height="512px" viewBox="0 0 24 24" width="512px" class=""><g><path d="m19.5 24h-15c-1.379 0-2.5-1.122-2.5-2.5v-19c0-1.378 1.121-2.5 2.5-2.5h15c1.379 0 2.5 1.122 2.5 2.5v19c0 1.378-1.121 2.5-2.5 2.5zm-15-23c-.827 0-1.5.673-1.5 1.5v19c0 .827.673 1.5 1.5 1.5h15c.827 0 1.5-.673 1.5-1.5v-19c0-.827-.673-1.5-1.5-1.5z" data-original="#000000" class="active-path" fill="#000000"/><path d="m11.5 21h-2c-.276 0-.5-.224-.5-.5s.224-.5.5-.5h2c.275 0 .5-.224.5-.5v-4c0-.276.224-.5.5-.5s.5.224.5.5v4c0 .827-.673 1.5-1.5 1.5z" data-original="#000000" class="active-path" fill="#000000"/><path d="m16.25 21h-1.75c-.276 0-.5-.224-.5-.5s.224-.5.5-.5h1.75c.413 0 .75-.336.75-.75s-.337-.75-.75-.75h-.5c-.965 0-1.75-.785-1.75-1.75s.785-1.75 1.75-1.75h1.75c.276 0 .5.224.5.5s-.224.5-.5.5h-1.75c-.413 0-.75.336-.75.75s.337.75.75.75h.5c.965 0 1.75.785 1.75 1.75s-.785 1.75-1.75 1.75z" data-original="#000000" class="active-path" fill="#000000"/><circle cx="7" cy="20" r="1" data-original="#000000" class="active-path" fill="#000000"/></g> </svg>
