<?xml version="1.0"?>
<svg xmlns="http://www.w3.org/2000/svg" xmlns:xlink="http://www.w3.org/1999/xlink" version="1.1" id="Capa_1" x="0px" y="0px" width="512px" height="512px" viewBox="0 0 456.795 456.795" style="enable-background:new 0 0 456.795 456.795;" xml:space="preserve"><g><g>
	<g>
		<path d="M448.947,218.475c-0.922-1.168-23.055-28.933-61-56.81c-50.705-37.253-105.877-56.944-159.551-56.944    c-53.672,0-108.844,19.691-159.551,56.944c-37.944,27.876-60.077,55.642-61,56.81L0,228.397l7.846,9.923    c0.923,1.168,23.056,28.934,61,56.811c50.707,37.252,105.879,56.943,159.551,56.943c53.673,0,108.845-19.691,159.55-56.943    c37.945-27.877,60.078-55.643,61-56.811l7.848-9.923L448.947,218.475z M228.396,307.397c-43.631,0-79-35.37-79-79s35.369-79,79-79    c43.631,0,79,35.37,79,79S272.027,307.397,228.396,307.397z" data-original="#000000" class="active-path" fill="#000000"/>
		<path d="M189.503,189.506c-21.478,21.479-21.478,56.303,0,77.783c21.479,21.479,56.306,21.479,77.785,0    c21.478-21.479,21.478-56.305,0-77.783C245.809,168.027,210.983,168.027,189.503,189.506z M265.791,226.902    c-4.461,4.459-16.113,0.04-26.027-9.874c-9.914-9.914-14.332-21.566-9.872-26.027c4.463-4.459,16.113-0.039,26.027,9.875    C265.832,210.788,270.253,222.44,265.791,226.902z" data-original="#000000" class="active-path" fill="#000000"/>
	</g>
</g></g> </svg>
